<?xml version="1.0" encoding="utf-8"?><svg xml:space="preserve" viewBox="0 0 100 100" y="0px" x="0px" xmlns:xlink="http://www.w3.org/1999/xlink" xmlns="http://www.w3.org/2000/svg" id="圖層_1" version="1.1" width="200px" height="200px" style="width:100%;height:100%;animation-play-state:paused" ><g class="ldl-scale" style="transform-origin:50% 50% 0px;transform:rotate(0deg) scale(0.8);animation-play-state:paused" ><g style="animation-play-state:paused" ><path d="M88.24,13.99H11.76c-2.31,0-4.18,1.87-4.18,4.18v15.21h84.83V18.17C92.42,15.86,90.55,13.99,88.24,13.99z" fill="#E15B64" style="fill:rgb(188, 92, 92);animation-play-state:paused" ></path>
<circle r="3.5" cy="23.95" cx="19.8" fill="#C33737" style="fill:rgb(154, 81, 81);animation-play-state:paused" ></circle>
<line y2="23.95" x2="19.8" y1="10.03" x1="19.8" stroke-miterlimit="10" stroke-linecap="round" stroke-width="4" stroke="#CCCCCC" fill="#333333" style="stroke:rgb(204, 204, 204);fill:rgb(6, 50, 50);animation-play-state:paused" ></line>
<circle r="3.5" cy="23.95" cx="34.91" fill="#C33737" style="fill:rgb(154, 81, 81);animation-play-state:paused" ></circle>
<line y2="23.95" x2="34.91" y1="10.03" x1="34.91" stroke-miterlimit="10" stroke-linecap="round" stroke-width="4" stroke="#CCCCCC" fill="#333333" style="stroke:rgb(204, 204, 204);fill:rgb(6, 50, 50);animation-play-state:paused" ></line>
<circle r="3.5" cy="23.95" cx="50.01" fill="#C33737" style="fill:rgb(154, 81, 81);animation-play-state:paused" ></circle>
<line y2="23.95" x2="50.01" y1="10.03" x1="50.01" stroke-miterlimit="10" stroke-linecap="round" stroke-width="4" stroke="#CCCCCC" fill="#333333" style="stroke:rgb(204, 204, 204);fill:rgb(6, 50, 50);animation-play-state:paused" ></line>
<circle r="3.5" cy="23.95" cx="65.11" fill="#C33737" style="fill:rgb(154, 81, 81);animation-play-state:paused" ></circle>
<line y2="23.95" x2="65.11" y1="10.03" x1="65.11" stroke-miterlimit="10" stroke-linecap="round" stroke-width="4" stroke="#CCCCCC" fill="#333333" style="stroke:rgb(204, 204, 204);fill:rgb(6, 50, 50);animation-play-state:paused" ></line>
<circle r="3.5" cy="23.95" cx="80.22" fill="#C33737" style="fill:rgb(154, 81, 81);animation-play-state:paused" ></circle>
<line y2="23.95" x2="80.22" y1="10.03" x1="80.22" stroke-miterlimit="10" stroke-linecap="round" stroke-width="4" stroke="#CCCCCC" fill="#333333" style="stroke:rgb(204, 204, 204);fill:rgb(6, 50, 50);animation-play-state:paused" ></line></g>
<g style="animation-play-state:paused" ><path d="M7.58,33.38v51.84c0,2.31,1.87,4.18,4.18,4.18h64.95h1.4l14.3-14.3v-1.4V33.38H7.58z" fill="#E0E0E0" style="fill:rgb(229, 229, 229);animation-play-state:paused" ></path>
<path d="M92.42,73.69H81.27c-2.52,0-4.55,2.04-4.55,4.55V89.4h1.4l14.3-14.3V73.69z" fill="#B3B3B3" style="fill:rgb(179, 179, 179);animation-play-state:paused" ></path></g>
<g style="animation-play-state:paused" ><line y2="61.13" x2="66" y1="61.13" x1="34" stroke-miterlimit="10" stroke-linecap="round" stroke-width="8" stroke="#39B54A" fill="none" style="stroke:rgb(86, 149, 149);animation-play-state:paused" ></line>
<line y2="45.13" x2="50" y1="77.13" x1="50" stroke-miterlimit="10" stroke-linecap="round" stroke-width="8" stroke="#39B54A" fill="none" style="stroke:rgb(86, 149, 149);animation-play-state:paused" ></line></g>
<metadata xmlns:d="https://loading.io/stock/" style="animation-play-state:paused" ><d:name style="animation-play-state:paused" >calendar</d:name>


<d:tags style="animation-play-state:paused" >calendar,schedule,plan,business,special,remark,add</d:tags>


<d:license style="animation-play-state:paused" >by</d:license>


<d:slug style="animation-play-state:paused" >1fy0zn</d:slug></metadata></g><!-- generated by https://loading.io/ --></svg>